<svg width="24" height="22" viewBox="0 0 24 22" fill="none" xmlns="http://www.w3.org/2000/svg">
<mask id="path-1-inside-1" fill="white">
<rect width="16" height="17" rx="1"/>
</mask>
<rect width="16" height="17" rx="1" fill="white" stroke="#F93922" stroke-width="4" mask="url(#path-1-inside-1)"/>
<path d="M0.5 1.602C0.5 1.23226 0.887435 0.990412 1.21961 1.15281L9.21961 5.06392C9.39119 5.1478 9.5 5.32211 9.5 5.51311V20.4675C9.5 20.8285 9.12908 21.0705 8.79863 20.9251L0.798631 17.4051C0.617153 17.3253 0.5 17.1458 0.5 16.9475V1.602Z" fill="#2558C8" stroke="#F93922"/>
<rect x="13" y="3" width="3" height="9" fill="white"/>
<rect x="11" y="6" width="10" height="3" rx="1.5" fill="#2558C8"/>
<rect x="18.1213" y="2" width="7.1655" height="3" rx="1.5" transform="rotate(45 18.1213 2)" fill="#2558C8"/>
<rect x="15.606" y="10.5195" width="8.02713" height="2.91986" rx="1.45993" transform="rotate(-38.3443 15.606 10.5195)" fill="#2558C8"/>
</svg>
